<svg xmlns="http://www.w3.org/2000/svg" xmlns:xlink="http://www.w3.org/1999/xlink" id="processonSvg1000" viewBox="17.0 17.5 1383.5 952.5" width="1383.5" height="952.5"><defs id="ProcessOnDefs1001"><marker id="ProcessOnMarker1018" markerUnits="userSpaceOnUse" orient="auto" markerWidth="16.23606797749979" markerHeight="10.550836550532098" viewBox="-1.0 -1.3763819204711736 16.23606797749979 10.550836550532098" refX="-1.0" refY="3.8990363547948754"><path id="ProcessOnPath1019" d="M12.0 3.8990363547948754L0.0 7.798072709589751V0.0Z" stroke="#323232" stroke-width="2.0" fill="#323232" transform="matrix(1.0,0.0,0.0,1.0,0.0,0.0)"/></marker><marker id="ProcessOnMarker1026" markerUnits="userSpaceOnUse" orient="auto" markerWidth="16.23606797749979" markerHeight="10.550836550532098" viewBox="-1.0 -1.3763819204711736 16.23606797749979 10.550836550532098" refX="-1.0" refY="3.8990363547948754"><path id="ProcessOnPath1027" d="M12.0 3.8990363547948754L0.0 7.798072709589751V0.0Z" stroke="#323232" stroke-width="2.0" fill="#323232" transform="matrix(1.0,0.0,0.0,1.0,0.0,0.0)"/></marker><marker id="ProcessOnMarker1039" markerUnits="userSpaceOnUse" orient="auto" markerWidth="16.23606797749979" markerHeight="10.550836550532098" viewBox="-1.0 -1.3763819204711736 16.23606797749979 10.550836550532098" refX="-1.0" refY="3.8990363547948754"><path id="ProcessOnPath1040" d="M12.0 3.8990363547948754L0.0 7.798072709589751V0.0Z" stroke="#323232" stroke-width="2.0" fill="#323232" transform="matrix(1.0,0.0,0.0,1.0,0.0,0.0)"/></marker><marker id="ProcessOnMarker1051" markerUnits="userSpaceOnUse" orient="auto" markerWidth="16.23606797749979" markerHeight="10.550836550532098" viewBox="-1.0 -1.3763819204711736 16.23606797749979 10.550836550532098" refX="-1.0" refY="3.8990363547948754"><path id="ProcessOnPath1052" d="M12.0 3.8990363547948754L0.0 7.798072709589751V0.0Z" stroke="#323232" stroke-width="2.0" fill="#323232" transform="matrix(1.0,0.0,0.0,1.0,0.0,0.0)"/></marker><marker id="ProcessOnMarker1063" markerUnits="userSpaceOnUse" orient="auto" markerWidth="16.23606797749979" markerHeight="10.550836550532098" viewBox="-1.0 -1.3763819204711736 16.23606797749979 10.550836550532098" refX="-1.0" refY="3.8990363547948754"><path id="ProcessOnPath1064" d="M12.0 3.8990363547948754L0.0 7.798072709589751V0.0Z" stroke="#323232" stroke-width="2.0" fill="#323232" transform="matrix(1.0,0.0,0.0,1.0,0.0,0.0)"/></marker><marker id="ProcessOnMarker1075" markerUnits="userSpaceOnUse" orient="auto" markerWidth="16.23606797749979" markerHeight="10.550836550532098" viewBox="-1.0 -1.3763819204711736 16.23606797749979 10.550836550532098" refX="-1.0" refY="3.8990363547948754"><path id="ProcessOnPath1076" d="M12.0 3.8990363547948754L0.0 7.798072709589751V0.0Z" stroke="#323232" stroke-width="2.0" fill="#323232" transform="matrix(1.0,0.0,0.0,1.0,0.0,0.0)"/></marker><marker id="ProcessOnMarker1084" markerUnits="userSpaceOnUse" orient="auto" markerWidth="16.23606797749979" markerHeight="10.550836550532098" viewBox="-1.0 -1.3763819204711736 16.23606797749979 10.550836550532098" refX="-1.0" refY="3.8990363547948754"><path id="ProcessOnPath1085" d="M12.0 3.8990363547948754L0.0 7.798072709589751V0.0Z" stroke="#323232" stroke-width="2.0" fill="#323232" transform="matrix(1.0,0.0,0.0,1.0,0.0,0.0)"/></marker><marker id="ProcessOnMarker1088" markerUnits="userSpaceOnUse" orient="auto" markerWidth="16.23606797749979" markerHeight="10.550836550532098" viewBox="-1.0 -1.3763819204711736 16.23606797749979 10.550836550532098" refX="-1.0" refY="3.8990363547948754"><path id="ProcessOnPath1089" d="M12.0 3.8990363547948754L0.0 7.798072709589751V0.0Z" stroke="#323232" stroke-width="2.0" fill="#323232" transform="matrix(1.0,0.0,0.0,1.0,0.0,0.0)"/></marker><marker id="ProcessOnMarker1098" markerUnits="userSpaceOnUse" orient="auto" markerWidth="16.23606797749979" markerHeight="10.550836550532098" viewBox="-1.0 -1.3763819204711736 16.23606797749979 10.550836550532098" refX="-1.0" refY="3.8990363547948754"><path id="ProcessOnPath1099" d="M12.0 3.8990363547948754L0.0 7.798072709589751V0.0Z" stroke="#323232" stroke-width="2.0" fill="#323232" transform="matrix(1.0,0.0,0.0,1.0,0.0,0.0)"/></marker><marker id="ProcessOnMarker1106" markerUnits="userSpaceOnUse" orient="auto" markerWidth="16.23606797749979" markerHeight="10.550836550532098" viewBox="-1.0 -1.3763819204711736 16.23606797749979 10.550836550532098" refX="-1.0" refY="3.8990363547948754"><path id="ProcessOnPath1107" d="M12.0 3.8990363547948754L0.0 7.798072709589751V0.0Z" stroke="#323232" stroke-width="2.0" fill="#323232" transform="matrix(1.0,0.0,0.0,1.0,0.0,0.0)"/></marker><marker id="ProcessOnMarker1128" markerUnits="userSpaceOnUse" orient="auto" markerWidth="16.23606797749979" markerHeight="10.550836550532098" viewBox="-1.0 -1.3763819204711736 16.23606797749979 10.550836550532098" refX="-1.0" refY="3.8990363547948754"><path id="ProcessOnPath1129" d="M12.0 3.8990363547948754L0.0 7.798072709589751V0.0Z" stroke="#323232" stroke-width="2.0" fill="#323232" transform="matrix(1.0,0.0,0.0,1.0,0.0,0.0)"/></marker><marker id="ProcessOnMarker1136" markerUnits="userSpaceOnUse" orient="auto" markerWidth="16.23606797749979" markerHeight="10.550836550532098" viewBox="-1.0 -1.3763819204711736 16.23606797749979 10.550836550532098" refX="-1.0" refY="3.8990363547948754"><path id="ProcessOnPath1137" d="M12.0 3.8990363547948754L0.0 7.798072709589751V0.0Z" stroke="#323232" stroke-width="2.0" fill="#323232" transform="matrix(1.0,0.0,0.0,1.0,0.0,0.0)"/></marker><marker id="ProcessOnMarker1149" markerUnits="userSpaceOnUse" orient="auto" markerWidth="16.23606797749979" markerHeight="10.550836550532098" viewBox="-1.0 -1.3763819204711736 16.23606797749979 10.550836550532098" refX="-1.0" refY="3.8990363547948754"><path id="ProcessOnPath1150" d="M12.0 3.8990363547948754L0.0 7.798072709589751V0.0Z" stroke="#323232" stroke-width="2.0" fill="#323232" transform="matrix(1.0,0.0,0.0,1.0,0.0,0.0)"/></marker><marker id="ProcessOnMarker1157" markerUnits="userSpaceOnUse" orient="auto" markerWidth="16.23606797749979" markerHeight="10.550836550532098" viewBox="-1.0 -1.3763819204711736 16.23606797749979 10.550836550532098" refX="-1.0" refY="3.8990363547948754"><path id="ProcessOnPath1158" d="M12.0 3.8990363547948754L0.0 7.798072709589751V0.0Z" stroke="#323232" stroke-width="2.0" fill="#323232" transform="matrix(1.0,0.0,0.0,1.0,0.0,0.0)"/></marker><marker id="ProcessOnMarker1165" markerUnits="userSpaceOnUse" orient="auto" markerWidth="16.23606797749979" markerHeight="10.550836550532098" viewBox="-1.0 -1.3763819204711736 16.23606797749979 10.550836550532098" refX="-1.0" refY="3.8990363547948754"><path id="ProcessOnPath1166" d="M12.0 3.8990363547948754L0.0 7.798072709589751V0.0Z" stroke="#323232" stroke-width="2.0" fill="#323232" transform="matrix(1.0,0.0,0.0,1.0,0.0,0.0)"/></marker><marker id="ProcessOnMarker1173" markerUnits="userSpaceOnUse" orient="auto" markerWidth="16.23606797749979" markerHeight="10.550836550532098" viewBox="-1.0 -1.3763819204711736 16.23606797749979 10.550836550532098" refX="-1.0" refY="3.8990363547948754"><path id="ProcessOnPath1174" d="M12.0 3.8990363547948754L0.0 7.798072709589751V0.0Z" stroke="#323232" stroke-width="2.0" fill="#323232" transform="matrix(1.0,0.0,0.0,1.0,0.0,0.0)"/></marker><marker id="ProcessOnMarker1189" markerUnits="userSpaceOnUse" orient="auto" markerWidth="16.23606797749979" markerHeight="10.550836550532098" viewBox="-1.0 -1.3763819204711736 16.23606797749979 10.550836550532098" refX="-1.0" refY="3.8990363547948754"><path id="ProcessOnPath1190" d="M12.0 3.8990363547948754L0.0 7.798072709589751V0.0Z" stroke="#323232" stroke-width="2.0" fill="#323232" transform="matrix(1.0,0.0,0.0,1.0,0.0,0.0)"/></marker><marker id="ProcessOnMarker1193" markerUnits="userSpaceOnUse" orient="auto" markerWidth="16.23606797749979" markerHeight="10.550836550532098" viewBox="-1.0 -1.3763819204711736 16.23606797749979 10.550836550532098" refX="-1.0" refY="3.8990363547948754"><path id="ProcessOnPath1194" d="M12.0 3.8990363547948754L0.0 7.798072709589751V0.0Z" stroke="#323232" stroke-width="2.0" fill="#323232" transform="matrix(1.0,0.0,0.0,1.0,0.0,0.0)"/></marker><marker id="ProcessOnMarker1214" markerUnits="userSpaceOnUse" orient="auto" markerWidth="16.23606797749979" markerHeight="10.550836550532098" viewBox="-1.0 -1.3763819204711736 16.23606797749979 10.550836550532098" refX="-1.0" refY="3.8990363547948754"><path id="ProcessOnPath1215" d="M12.0 3.8990363547948754L0.0 7.798072709589751V0.0Z" stroke="#323232" stroke-width="2.0" fill="#323232" transform="matrix(1.0,0.0,0.0,1.0,0.0,0.0)"/></marker><marker id="ProcessOnMarker1218" markerUnits="userSpaceOnUse" orient="auto" markerWidth="16.23606797749979" markerHeight="10.550836550532098" viewBox="-1.0 -1.3763819204711736 16.23606797749979 10.550836550532098" refX="-1.0" refY="3.8990363547948754"><path id="ProcessOnPath1219" d="M12.0 3.8990363547948754L0.0 7.798072709589751V0.0Z" stroke="#323232" stroke-width="2.0" fill="#323232" transform="matrix(1.0,0.0,0.0,1.0,0.0,0.0)"/></marker><marker id="ProcessOnMarker1238" markerUnits="userSpaceOnUse" orient="auto" markerWidth="16.23606797749979" markerHeight="10.550836550532098" viewBox="-1.0 -1.3763819204711736 16.23606797749979 10.550836550532098" refX="-1.0" refY="3.8990363547948754"><path id="ProcessOnPath1239" d="M12.0 3.8990363547948754L0.0 7.798072709589751V0.0Z" stroke="#323232" stroke-width="2.0" fill="#323232" transform="matrix(1.0,0.0,0.0,1.0,0.0,0.0)"/></marker></defs><g id="ProcessOnG1002"><path id="ProcessOnPath1003" d="M17.0 17.5H1400.5V970.0H17.0V17.5Z" fill="none"/><g id="ProcessOnG1004"><g id="ProcessOnG1005" transform="matrix(1.0,0.0,0.0,1.0,485.5,302.75)" opacity="1.0"><path id="ProcessOnPath1006" d="M0.0 0.0L895.0 0.0L895.0 540.0L0.0 540.0Z" stroke="#323232" stroke-width="2.0" stroke-dasharray="10.0 4.0" fill="none"/></g><g id="ProcessOnG1007" transform="matrix(1.0,0.0,0.0,1.0,580.5,37.5)" opacity="1.0"><path id="ProcessOnPath1008" d="M0.0 4.0Q0.0 0.0 4.0 0.0L96.0 0.0Q100.0 0.0 100.0 4.0L100.0 36.0Q100.0 40.0 96.0 40.0L4.0 40.0Q0.0 40.0 0.0 36.0Z" stroke="#323232" stroke-width="2.0" stroke-dasharray="none" fill="#ffffff"/><g id="ProcessOnG1009" transform="matrix(1.0,0.0,0.0,1.0,10.0,10.625)"><text id="ProcessOnText1010" fill="#323232" font-size="15" x="39.0" y="15.375" font-family="Arial" font-weight="bold" font-style="normal" text-decoration="none" family="Arial" text-anchor="middle" size="15">查找文件</text></g></g><g id="ProcessOnG1011" transform="matrix(1.0,0.0,0.0,1.0,535.5,115.5)" opacity="1.0"><path id="ProcessOnPath1012" d="M0.0 45.0L95.0 0.0L190.0 45.0L95.0 90.0Z" stroke="#323232" stroke-width="2.0" stroke-dasharray="none" fill="#ffffff"/><g id="ProcessOnG1013" transform="matrix(1.0,0.0,0.0,1.0,10.0,26.700000000000003)"><text id="ProcessOnText1014" fill="#323232" font-size="15" x="84.0" y="15.375" font-family="Arial" font-weight="bold" font-style="normal" text-decoration="none" family="Arial" text-anchor="middle" size="15">判断查找路径</text><text id="ProcessOnText1015" fill="#323232" font-size="15" x="84.0" y="34.125" font-family="Arial" font-weight="bold" font-style="normal" text-decoration="none" family="Arial" text-anchor="middle" size="15">是否为相对路径</text></g></g><g id="ProcessOnG1016"><path id="ProcessOnPath1017" d="M630.5 77.5L630.5 96.5L630.5 96.5L630.5 100.26393202250021" stroke="#323232" stroke-width="2.0" stroke-dasharray="none" fill="none" marker-end="url(#ProcessOnMarker1018)"/></g><g id="ProcessOnG1020" transform="matrix(1.0,0.0,0.0,1.0,565.5,250.5)" opacity="1.0"><path id="ProcessOnPath1021" d="M0.0 4.0Q0.0 0.0 4.0 0.0L126.0 0.0Q130.0 0.0 130.0 4.0L130.0 36.0Q130.0 40.0 126.0 40.0L4.0 40.0Q0.0 40.0 0.0 36.0Z" stroke="#323232" stroke-width="2.0" stroke-dasharray="none" fill="#ffffff"/><g id="ProcessOnG1022" transform="matrix(1.0,0.0,0.0,1.0,10.0,10.625)"><text id="ProcessOnText1023" fill="#323232" font-size="15" x="54.0" y="15.375" font-family="Arial" font-weight="bold" font-style="normal" text-decoration="none" family="Arial" text-anchor="middle" size="15">判定为文件模块</text></g></g><g id="ProcessOnG1024"><path id="ProcessOnPath1025" d="M630.5 205.5L630.5 228.0L630.5 228.0L630.5 235.2639320225002" stroke="#323232" stroke-width="2.0" stroke-dasharray="none" fill="none" marker-end="url(#ProcessOnMarker1026)"/></g><g id="ProcessOnG1028" transform="matrix(1.0,0.0,0.0,1.0,596.5,205.5)" opacity="1.0"><path id="ProcessOnPath1029" d="M0.0 0.0L44.0 0.0L44.0 35.0L0.0 35.0Z" stroke="none" stroke-width="0.0" stroke-dasharray="none" fill="none"/><g id="ProcessOnG1030" transform="matrix(1.0,0.0,0.0,1.0,0.0,8.125)"><text id="ProcessOnText1031" fill="#323232" font-size="15" x="21.0" y="15.375" font-family="Arial" font-weight="bold" font-style="normal" text-decoration="none" family="Arial" text-anchor="middle" size="15">Y</text></g></g><g id="ProcessOnG1032" transform="matrix(1.0,0.0,0.0,1.0,233.0,120.5)" opacity="1.0"><path id="ProcessOnPath1033" d="M0.0 40.0L60.0 0.0L120.0 40.0L60.0 80.0Z" stroke="#323232" stroke-width="2.0" stroke-dasharray="none" fill="#ffffff"/><g id="ProcessOnG1034" transform="matrix(1.0,0.0,0.0,1.0,10.0,21.65)"><text id="ProcessOnText1035" fill="#323232" font-size="15" x="49.0" y="15.375" font-family="Arial" font-weight="bold" font-style="normal" text-decoration="none" family="Arial" text-anchor="middle" size="15">是否为</text><text id="ProcessOnText1036" fill="#323232" font-size="15" x="49.0" y="34.125" font-family="Arial" font-weight="bold" font-style="normal" text-decoration="none" family="Arial" text-anchor="middle" size="15">核心模块</text></g></g><g id="ProcessOnG1037"><path id="ProcessOnPath1038" d="M535.5 160.5L444.25 160.5L444.25 160.5L368.2360679774998 160.5" stroke="#323232" stroke-width="2.0" stroke-dasharray="none" fill="none" marker-end="url(#ProcessOnMarker1039)"/></g><g id="ProcessOnG1041" transform="matrix(1.0,0.0,0.0,1.0,431.5,127.0)" opacity="1.0"><path id="ProcessOnPath1042" d="M0.0 0.0L44.0 0.0L44.0 35.0L0.0 35.0Z" stroke="none" stroke-width="0.0" stroke-dasharray="none" fill="none"/><g id="ProcessOnG1043" transform="matrix(1.0,0.0,0.0,1.0,0.0,8.125)"><text id="ProcessOnText1044" fill="#323232" font-size="15" x="21.0" y="15.375" font-family="Arial" font-weight="bold" font-style="normal" text-decoration="none" family="Arial" text-anchor="middle" size="15">N</text></g></g><g id="ProcessOnG1045" transform="matrix(1.0,0.0,0.0,1.0,37.0,140.5)" opacity="1.0"><path id="ProcessOnPath1046" d="M0.0 4.0Q0.0 0.0 4.0 0.0L116.0 0.0Q120.0 0.0 120.0 4.0L120.0 36.0Q120.0 40.0 116.0 40.0L4.0 40.0Q0.0 40.0 0.0 36.0Z" stroke="#323232" stroke-width="2.0" stroke-dasharray="none" fill="#ffffff"/><g id="ProcessOnG1047" transform="matrix(1.0,0.0,0.0,1.0,10.0,10.625)"><text id="ProcessOnText1048" fill="#323232" font-size="15" x="49.0" y="15.375" font-family="Arial" font-weight="bold" font-style="normal" text-decoration="none" family="Arial" text-anchor="middle" size="15">加载核心模块</text></g></g><g id="ProcessOnG1049"><path id="ProcessOnPath1050" d="M233.0 160.5L195.0 160.5L195.0 160.5L172.2360679774998 160.5" stroke="#323232" stroke-width="2.0" stroke-dasharray="none" fill="none" marker-end="url(#ProcessOnMarker1051)"/></g><g id="ProcessOnG1053" transform="matrix(1.0,0.0,0.0,1.0,179.0,127.0)" opacity="1.0"><path id="ProcessOnPath1054" d="M0.0 0.0L44.0 0.0L44.0 35.0L0.0 35.0Z" stroke="none" stroke-width="0.0" stroke-dasharray="none" fill="none"/><g id="ProcessOnG1055" transform="matrix(1.0,0.0,0.0,1.0,0.0,8.125)"><text id="ProcessOnText1056" fill="#323232" font-size="15" x="21.0" y="15.375" font-family="Arial" font-weight="bold" font-style="normal" text-decoration="none" family="Arial" text-anchor="middle" size="15">Y</text></g></g><g id="ProcessOnG1057" transform="matrix(1.0,0.0,0.0,1.0,223.0,250.5)" opacity="1.0"><path id="ProcessOnPath1058" d="M0.0 4.0Q0.0 0.0 4.0 0.0L136.0 0.0Q140.0 0.0 140.0 4.0L140.0 36.0Q140.0 40.0 136.0 40.0L4.0 40.0Q0.0 40.0 0.0 36.0Z" stroke="#323232" stroke-width="2.0" stroke-dasharray="none" fill="#ffffff"/><g id="ProcessOnG1059" transform="matrix(1.0,0.0,0.0,1.0,10.0,10.625)"><text id="ProcessOnText1060" fill="#323232" font-size="15" x="59.0" y="15.375" font-family="Arial" font-weight="bold" font-style="normal" text-decoration="none" family="Arial" text-anchor="middle" size="15">判定为第三方模块</text></g></g><g id="ProcessOnG1061"><path id="ProcessOnPath1062" d="M293.0 200.5L293.0 225.5L293.0 225.5L293.0 235.2639320225002" stroke="#323232" stroke-width="2.0" stroke-dasharray="none" fill="none" marker-end="url(#ProcessOnMarker1063)"/></g><g id="ProcessOnG1065" transform="matrix(1.0,0.0,0.0,1.0,286.0,200.5)" opacity="1.0"><path id="ProcessOnPath1066" d="M0.0 0.0L44.0 0.0L44.0 35.0L0.0 35.0Z" stroke="none" stroke-width="0.0" stroke-dasharray="none" fill="none"/><g id="ProcessOnG1067" transform="matrix(1.0,0.0,0.0,1.0,0.0,8.125)"><text id="ProcessOnText1068" fill="#323232" font-size="15" x="21.0" y="15.375" font-family="Arial" font-weight="bold" font-style="normal" text-decoration="none" family="Arial" text-anchor="middle" size="15">N</text></g></g><g id="ProcessOnG1069" transform="matrix(1.0,0.0,0.0,1.0,550.5,340.5)" opacity="1.0"><path id="ProcessOnPath1070" d="M0.0 4.0Q0.0 0.0 4.0 0.0L156.0 0.0Q160.0 0.0 160.0 4.0L160.0 36.0Q160.0 40.0 156.0 40.0L4.0 40.0Q0.0 40.0 0.0 36.0Z" stroke="#323232" stroke-width="2.0" stroke-dasharray="none" fill="#ffffff"/><g id="ProcessOnG1071" transform="matrix(1.0,0.0,0.0,1.0,10.0,10.625)"><text id="ProcessOnText1072" fill="#323232" font-size="15" x="69.0" y="15.375" font-family="Arial" font-weight="bold" font-style="normal" text-decoration="none" family="Arial" text-anchor="middle" size="15">尝试按照包开始查找</text></g></g><g id="ProcessOnG1073"><path id="ProcessOnPath1074" d="M630.5 290.5L630.5 315.5L630.5 315.5L630.5 325.2639320225002" stroke="#323232" stroke-width="2.0" stroke-dasharray="none" fill="none" marker-end="url(#ProcessOnMarker1075)"/></g><g id="ProcessOnG1077" transform="matrix(1.0,0.0,0.0,1.0,163.0,340.5)" opacity="1.0"><path id="ProcessOnPath1078" d="M0.0 4.0Q0.0 0.0 4.0 0.0L256.0 0.0Q260.0 0.0 260.0 4.0L260.0 36.0Q260.0 40.0 256.0 40.0L4.0 40.0Q0.0 40.0 0.0 36.0Z" stroke="#323232" stroke-width="2.0" stroke-dasharray="none" fill="#ffffff"/><g id="ProcessOnG1079" transform="matrix(1.0,0.0,0.0,1.0,10.0,1.25)"><text id="ProcessOnText1080" fill="#323232" font-size="15" x="119.0" y="15.375" font-family="Arial" font-weight="bold" font-style="normal" text-decoration="none" family="Arial" text-anchor="middle" size="15">按照 module.paths 返回的</text><text id="ProcessOnText1081" fill="#323232" font-size="15" x="119.0" y="34.125" font-family="Arial" font-weight="bold" font-style="normal" text-decoration="none" family="Arial" text-anchor="middle" size="15"> node_modules 路径开始查找文件</text></g></g><g id="ProcessOnG1082"><path id="ProcessOnPath1083" d="M293.0 290.5L293.0 315.5L293.0 315.5L293.0 325.2639320225002" stroke="#323232" stroke-width="2.0" stroke-dasharray="none" fill="none" marker-end="url(#ProcessOnMarker1084)"/></g><g id="ProcessOnG1086"><path id="ProcessOnPath1087" d="M423.0 360.5L486.75 360.5L486.75 360.5L535.2639320225002 360.5" stroke="#323232" stroke-width="2.0" stroke-dasharray="none" fill="none" marker-end="url(#ProcessOnMarker1088)"/></g><g id="ProcessOnG1090" transform="matrix(1.0,0.0,0.0,1.0,815.5,310.5)" opacity="1.0"><path id="ProcessOnPath1091" d="M0.0 50.0L110.0 0.0L220.0 50.0L110.0 100.0Z" stroke="#323232" stroke-width="2.0" stroke-dasharray="none" fill="#ffffff"/><g id="ProcessOnG1092" transform="matrix(1.0,0.0,0.0,1.0,10.0,22.375)"><text id="ProcessOnText1093" fill="#323232" font-size="15" x="99.0" y="15.375" font-family="Arial" font-weight="bold" font-style="normal" text-decoration="none" family="Arial" text-anchor="middle" size="15">对应目录下是</text><text id="ProcessOnText1094" fill="#323232" font-size="15" x="99.0" y="34.125" font-family="Arial" font-weight="bold" font-style="normal" text-decoration="none" family="Arial" text-anchor="middle" size="15">否有 package.json 文件</text><text id="ProcessOnText1095" fill="#323232" font-size="15" x="99.0" y="52.875" font-family="Arial" font-weight="bold" font-style="normal" text-decoration="none" family="Arial" text-anchor="middle" size="15">及 main 指向</text></g></g><g id="ProcessOnG1096"><path id="ProcessOnPath1097" d="M710.5 360.5L763.0 360.5L763.0 360.5L800.2639320225002 360.5" stroke="#323232" stroke-width="2.0" stroke-dasharray="none" fill="none" marker-end="url(#ProcessOnMarker1098)"/></g><g id="ProcessOnG1100" transform="matrix(1.0,0.0,0.0,1.0,1175.5,340.5)" opacity="1.0"><path id="ProcessOnPath1101" d="M0.0 4.0Q0.0 0.0 4.0 0.0L176.0 0.0Q180.0 0.0 180.0 4.0L180.0 36.0Q180.0 40.0 176.0 40.0L4.0 40.0Q0.0 40.0 0.0 36.0Z" stroke="#323232" stroke-width="2.0" stroke-dasharray="none" fill="#ffffff"/><g id="ProcessOnG1102" transform="matrix(1.0,0.0,0.0,1.0,10.0,10.625)"><text id="ProcessOnText1103" fill="#323232" font-size="15" x="79.0" y="15.375" font-family="Arial" font-weight="bold" font-style="normal" text-decoration="none" family="Arial" text-anchor="middle" size="15"> 加载 main 指定的文件</text></g></g><g id="ProcessOnG1104"><path id="ProcessOnPath1105" d="M1035.5 360.5L1105.5 360.5L1105.5 360.5L1160.2639320225003 360.5" stroke="#323232" stroke-width="2.0" stroke-dasharray="none" fill="none" marker-end="url(#ProcessOnMarker1106)"/></g><g id="ProcessOnG1108" transform="matrix(1.0,0.0,0.0,1.0,1078.5,329.0)" opacity="1.0"><path id="ProcessOnPath1109" d="M0.0 0.0L44.0 0.0L44.0 35.0L0.0 35.0Z" stroke="none" stroke-width="0.0" stroke-dasharray="none" fill="none"/><g id="ProcessOnG1110" transform="matrix(1.0,0.0,0.0,1.0,0.0,8.125)"><text id="ProcessOnText1111" fill="#323232" font-size="15" x="21.0" y="15.375" font-family="Arial" font-weight="bold" font-style="normal" text-decoration="none" family="Arial" text-anchor="middle" size="15">Y</text></g></g><g id="ProcessOnG1112" transform="matrix(1.0,0.0,0.0,1.0,795.5,466.0)" opacity="1.0"><path id="ProcessOnPath1113" d="M0.0 50.0L130.0 0.0L260.0 50.0L130.0 100.0Z" stroke="#323232" stroke-width="2.0" stroke-dasharray="none" fill="#ffffff"/><g id="ProcessOnG1114" transform="matrix(1.0,0.0,0.0,1.0,10.0,31.75)"><text id="ProcessOnText1115" fill="#323232" font-size="15" x="119.0" y="15.375" font-family="Arial" font-weight="bold" font-style="normal" text-decoration="none" family="Arial" text-anchor="middle" size="15">是否有对应的扩展名为 </text><text id="ProcessOnText1116" fill="#323232" font-size="15" x="119.0" y="34.125" font-family="Arial" font-weight="bold" font-style="normal" text-decoration="none" family="Arial" text-anchor="middle" size="15">.js、.json、.node 文件</text></g></g><g id="ProcessOnG1117" transform="matrix(1.0,0.0,0.0,1.0,550.5,496.0)" opacity="1.0"><path id="ProcessOnPath1118" d="M0.0 4.0Q0.0 0.0 4.0 0.0L156.0 0.0Q160.0 0.0 160.0 4.0L160.0 36.0Q160.0 40.0 156.0 40.0L4.0 40.0Q0.0 40.0 0.0 36.0Z" stroke="#323232" stroke-width="2.0" stroke-dasharray="none" fill="#ffffff"/><g id="ProcessOnG1119" transform="matrix(1.0,0.0,0.0,1.0,10.0,1.25)"><text id="ProcessOnText1120" fill="#323232" font-size="15" x="69.0" y="15.375" font-family="Arial" font-weight="bold" font-style="normal" text-decoration="none" family="Arial" text-anchor="middle" size="15">尝试添加扩展名，按</text><text id="ProcessOnText1121" fill="#323232" font-size="15" x="69.0" y="34.125" font-family="Arial" font-weight="bold" font-style="normal" text-decoration="none" family="Arial" text-anchor="middle" size="15">文件进行查找</text></g></g><g id="ProcessOnG1122" transform="matrix(1.0,0.0,0.0,1.0,747.5,420.0)" opacity="1.0"><path id="ProcessOnPath1123" d="M0.0 0.0L44.0 0.0L44.0 35.0L0.0 35.0Z" stroke="none" stroke-width="0.0" stroke-dasharray="none" fill="none"/><g id="ProcessOnG1124" transform="matrix(1.0,0.0,0.0,1.0,0.0,8.125)"><text id="ProcessOnText1125" fill="#323232" font-size="15" x="21.0" y="15.375" font-family="Arial" font-weight="bold" font-style="normal" text-decoration="none" family="Arial" text-anchor="middle" size="15">N</text></g></g><g id="ProcessOnG1126"><path id="ProcessOnPath1127" d="M710.5 516.0L753.0 516.0L753.0 516.0L780.2639320225002 516.0" stroke="#323232" stroke-width="2.0" stroke-dasharray="none" fill="none" marker-end="url(#ProcessOnMarker1128)"/></g><g id="ProcessOnG1130" transform="matrix(1.0,0.0,0.0,1.0,1175.5,496.0)" opacity="1.0"><path id="ProcessOnPath1131" d="M0.0 4.0Q0.0 0.0 4.0 0.0L176.0 0.0Q180.0 0.0 180.0 4.0L180.0 36.0Q180.0 40.0 176.0 40.0L4.0 40.0Q0.0 40.0 0.0 36.0Z" stroke="#323232" stroke-width="2.0" stroke-dasharray="none" fill="#ffffff"/><g id="ProcessOnG1132" transform="matrix(1.0,0.0,0.0,1.0,10.0,10.625)"><text id="ProcessOnText1133" fill="#323232" font-size="15" x="79.0" y="15.375" font-family="Arial" font-weight="bold" font-style="normal" text-decoration="none" family="Arial" text-anchor="middle" size="15">加载对应文件</text></g></g><g id="ProcessOnG1134"><path id="ProcessOnPath1135" d="M1055.5 516.0L1115.5 516.0L1115.5 516.0L1160.2639320225003 516.0" stroke="#323232" stroke-width="2.0" stroke-dasharray="none" fill="none" marker-end="url(#ProcessOnMarker1136)"/></g><g id="ProcessOnG1138" transform="matrix(1.0,0.0,0.0,1.0,1085.5,486.0)" opacity="1.0"><path id="ProcessOnPath1139" d="M0.0 0.0L44.0 0.0L44.0 35.0L0.0 35.0Z" stroke="none" stroke-width="0.0" stroke-dasharray="none" fill="none"/><g id="ProcessOnG1140" transform="matrix(1.0,0.0,0.0,1.0,0.0,8.125)"><text id="ProcessOnText1141" fill="#323232" font-size="15" x="21.0" y="15.375" font-family="Arial" font-weight="bold" font-style="normal" text-decoration="none" family="Arial" text-anchor="middle" size="15">Y</text></g></g><g id="ProcessOnG1142" transform="matrix(1.0,0.0,0.0,1.0,510.5,630.0)" opacity="1.0"><path id="ProcessOnPath1143" d="M0.0 4.0Q0.0 0.0 4.0 0.0L236.0 0.0Q240.0 0.0 240.0 4.0L240.0 36.0Q240.0 40.0 236.0 40.0L4.0 40.0Q0.0 40.0 0.0 36.0Z" stroke="#323232" stroke-width="2.0" stroke-dasharray="none" fill="#ffffff"/><g id="ProcessOnG1144" transform="matrix(1.0,0.0,0.0,1.0,10.0,1.25)"><text id="ProcessOnText1145" fill="#323232" font-size="15" x="109.0" y="15.375" font-family="Arial" font-weight="bold" font-style="normal" text-decoration="none" family="Arial" text-anchor="middle" size="15">尝试查找该目录下的 index 文件</text><text id="ProcessOnText1146" fill="#323232" font-size="15" x="109.0" y="34.125" font-family="Arial" font-weight="bold" font-style="normal" text-decoration="none" family="Arial" text-anchor="middle" size="15">（扩展名 .js、.json、.node）</text></g></g><g id="ProcessOnG1147"><path id="ProcessOnPath1148" d="M925.5 410.5L925.5 453.25L630.5 453.25L630.5 480.7639320225002" stroke="#323232" stroke-width="2.0" stroke-dasharray="none" fill="none" marker-end="url(#ProcessOnMarker1149)"/></g><g id="ProcessOnG1151" transform="matrix(1.0,0.0,0.0,1.0,845.5,610.0)" opacity="1.0"><path id="ProcessOnPath1152" d="M0.0 40.0L80.0 0.0L160.0 40.0L80.0 80.0Z" stroke="#323232" stroke-width="2.0" stroke-dasharray="none" fill="#ffffff"/><g id="ProcessOnG1153" transform="matrix(1.0,0.0,0.0,1.0,10.0,31.025)"><text id="ProcessOnText1154" fill="#323232" font-size="15" x="69.0" y="15.375" font-family="Arial" font-weight="bold" font-style="normal" text-decoration="none" family="Arial" text-anchor="middle" size="15">是否有对应的文件</text></g></g><g id="ProcessOnG1155"><path id="ProcessOnPath1156" d="M925.5 566.0L925.5 598.0L630.5 598.0L630.5 614.7639320225002" stroke="#323232" stroke-width="2.0" stroke-dasharray="none" fill="none" marker-end="url(#ProcessOnMarker1157)"/></g><g id="ProcessOnG1159" transform="matrix(1.0,0.0,0.0,1.0,748.5,566.0)" opacity="1.0"><path id="ProcessOnPath1160" d="M0.0 0.0L44.0 0.0L44.0 35.0L0.0 35.0Z" stroke="none" stroke-width="0.0" stroke-dasharray="none" fill="none"/><g id="ProcessOnG1161" transform="matrix(1.0,0.0,0.0,1.0,0.0,8.125)"><text id="ProcessOnText1162" fill="#323232" font-size="15" x="21.0" y="15.375" font-family="Arial" font-weight="bold" font-style="normal" text-decoration="none" family="Arial" text-anchor="middle" size="15">N</text></g></g><g id="ProcessOnG1163"><path id="ProcessOnPath1164" d="M750.5 650.0L798.0 650.0L798.0 650.0L830.2639320225002 650.0" stroke="#323232" stroke-width="2.0" stroke-dasharray="none" fill="none" marker-end="url(#ProcessOnMarker1165)"/></g><g id="ProcessOnG1167" transform="matrix(1.0,0.0,0.0,1.0,1175.5,630.0)" opacity="1.0"><path id="ProcessOnPath1168" d="M0.0 4.0Q0.0 0.0 4.0 0.0L176.0 0.0Q180.0 0.0 180.0 4.0L180.0 36.0Q180.0 40.0 176.0 40.0L4.0 40.0Q0.0 40.0 0.0 36.0Z" stroke="#323232" stroke-width="2.0" stroke-dasharray="none" fill="#ffffff"/><g id="ProcessOnG1169" transform="matrix(1.0,0.0,0.0,1.0,10.0,10.625)"><text id="ProcessOnText1170" fill="#323232" font-size="15" x="79.0" y="15.375" font-family="Arial" font-weight="bold" font-style="normal" text-decoration="none" family="Arial" text-anchor="middle" size="15">加载对应文件</text></g></g><g id="ProcessOnG1171"><path id="ProcessOnPath1172" d="M1005.5 650.0L1090.5 650.0L1090.5 650.0L1160.2639320225003 650.0" stroke="#323232" stroke-width="2.0" stroke-dasharray="none" fill="none" marker-end="url(#ProcessOnMarker1173)"/></g><g id="ProcessOnG1175" transform="matrix(1.0,0.0,0.0,1.0,1071.5,618.5)" opacity="1.0"><path id="ProcessOnPath1176" d="M0.0 0.0L44.0 0.0L44.0 35.0L0.0 35.0Z" stroke="none" stroke-width="0.0" stroke-dasharray="none" fill="none"/><g id="ProcessOnG1177" transform="matrix(1.0,0.0,0.0,1.0,0.0,8.125)"><text id="ProcessOnText1178" fill="#323232" font-size="15" x="21.0" y="15.375" font-family="Arial" font-weight="bold" font-style="normal" text-decoration="none" family="Arial" text-anchor="middle" size="15">Y</text></g></g><g id="ProcessOnG1179" transform="matrix(1.0,0.0,0.0,1.0,855.5,740.0)" opacity="1.0"><path id="ProcessOnPath1180" d="M0.0 40.0L70.0 0.0L140.0 40.0L70.0 80.0Z" stroke="#323232" stroke-width="2.0" stroke-dasharray="none" fill="#ffffff"/><g id="ProcessOnG1181" transform="matrix(1.0,0.0,0.0,1.0,10.0,31.025)"><text id="ProcessOnText1182" fill="#323232" font-size="15" x="59.0" y="15.375" font-family="Arial" font-weight="bold" font-style="normal" text-decoration="none" family="Arial" text-anchor="middle" size="15">是否为文件模块</text></g></g><g id="ProcessOnG1183" transform="matrix(1.0,0.0,0.0,1.0,1175.5,760.0)" opacity="1.0"><path id="ProcessOnPath1184" d="M0.0 4.0Q0.0 0.0 4.0 0.0L176.0 0.0Q180.0 0.0 180.0 4.0L180.0 36.0Q180.0 40.0 176.0 40.0L4.0 40.0Q0.0 40.0 0.0 36.0Z" stroke="#323232" stroke-width="2.0" stroke-dasharray="none" fill="#ffffff"/><g id="ProcessOnG1185" transform="matrix(1.0,0.0,0.0,1.0,10.0,10.625)"><text id="ProcessOnText1186" fill="#323232" font-size="15" x="79.0" y="15.375" font-family="Arial" font-weight="bold" font-style="normal" text-decoration="none" family="Arial" text-anchor="middle" size="15">Can not found moudle</text></g></g><g id="ProcessOnG1187"><path id="ProcessOnPath1188" d="M925.5 690.0L925.5 715.0L925.5 715.0L925.5 724.7639320225002" stroke="#323232" stroke-width="2.0" stroke-dasharray="none" fill="none" marker-end="url(#ProcessOnMarker1189)"/></g><g id="ProcessOnG1191"><path id="ProcessOnPath1192" d="M995.5 780.0L1085.5 780.0L1085.5 780.0L1160.2639320225003 780.0" stroke="#323232" stroke-width="2.0" stroke-dasharray="none" fill="none" marker-end="url(#ProcessOnMarker1193)"/></g><g id="ProcessOnG1195" transform="matrix(1.0,0.0,0.0,1.0,917.5,690.0)" opacity="1.0"><path id="ProcessOnPath1196" d="M0.0 0.0L44.0 0.0L44.0 35.0L0.0 35.0Z" stroke="none" stroke-width="0.0" stroke-dasharray="none" fill="none"/><g id="ProcessOnG1197" transform="matrix(1.0,0.0,0.0,1.0,0.0,8.125)"><text id="ProcessOnText1198" fill="#323232" font-size="15" x="21.0" y="15.375" font-family="Arial" font-weight="bold" font-style="normal" text-decoration="none" family="Arial" text-anchor="middle" size="15">N</text></g></g><g id="ProcessOnG1199" transform="matrix(1.0,0.0,0.0,1.0,1055.5,747.0)" opacity="1.0"><path id="ProcessOnPath1200" d="M0.0 0.0L44.0 0.0L44.0 35.0L0.0 35.0Z" stroke="none" stroke-width="0.0" stroke-dasharray="none" fill="none"/><g id="ProcessOnG1201" transform="matrix(1.0,0.0,0.0,1.0,0.0,8.125)"><text id="ProcessOnText1202" fill="#323232" font-size="15" x="21.0" y="15.375" font-family="Arial" font-weight="bold" font-style="normal" text-decoration="none" family="Arial" text-anchor="middle" size="15">Y</text></g></g><g id="ProcessOnG1203" transform="matrix(1.0,0.0,0.0,1.0,835.5,870.0)" opacity="1.0"><path id="ProcessOnPath1204" d="M0.0 40.0L90.0 0.0L180.0 40.0L90.0 80.0Z" stroke="#323232" stroke-width="2.0" stroke-dasharray="none" fill="#ffffff"/><g id="ProcessOnG1205" transform="matrix(1.0,0.0,0.0,1.0,10.0,21.65)"><text id="ProcessOnText1206" fill="#323232" font-size="15" x="79.0" y="15.375" font-family="Arial" font-weight="bold" font-style="normal" text-decoration="none" family="Arial" text-anchor="middle" size="15">是否有下一级 </text><text id="ProcessOnText1207" fill="#323232" font-size="15" x="79.0" y="34.125" font-family="Arial" font-weight="bold" font-style="normal" text-decoration="none" family="Arial" text-anchor="middle" size="15">module.path</text></g></g><g id="ProcessOnG1208" transform="matrix(1.0,0.0,0.0,1.0,1175.5,890.0)" opacity="1.0"><path id="ProcessOnPath1209" d="M0.0 4.0Q0.0 0.0 4.0 0.0L176.0 0.0Q180.0 0.0 180.0 4.0L180.0 36.0Q180.0 40.0 176.0 40.0L4.0 40.0Q0.0 40.0 0.0 36.0Z" stroke="#323232" stroke-width="2.0" stroke-dasharray="none" fill="#ffffff"/><g id="ProcessOnG1210" transform="matrix(1.0,0.0,0.0,1.0,10.0,10.625)"><text id="ProcessOnText1211" fill="#323232" font-size="15" x="79.0" y="15.375" font-family="Arial" font-weight="bold" font-style="normal" text-decoration="none" family="Arial" text-anchor="middle" size="15">Can not found moudle</text></g></g><g id="ProcessOnG1212"><path id="ProcessOnPath1213" d="M925.5 820.0L925.5 845.0L925.5 845.0L925.5 854.7639320225002" stroke="#323232" stroke-width="2.0" stroke-dasharray="none" fill="none" marker-end="url(#ProcessOnMarker1214)"/></g><g id="ProcessOnG1216"><path id="ProcessOnPath1217" d="M1015.5 910.0L1095.5 910.0L1095.5 910.0L1160.2639320225003 910.0" stroke="#323232" stroke-width="2.0" stroke-dasharray="none" fill="none" marker-end="url(#ProcessOnMarker1218)"/></g><g id="ProcessOnG1220" transform="matrix(1.0,0.0,0.0,1.0,917.5,812.0)" opacity="1.0"><path id="ProcessOnPath1221" d="M0.0 0.0L44.0 0.0L44.0 35.0L0.0 35.0Z" stroke="none" stroke-width="0.0" stroke-dasharray="none" fill="none"/><g id="ProcessOnG1222" transform="matrix(1.0,0.0,0.0,1.0,0.0,8.125)"><text id="ProcessOnText1223" fill="#323232" font-size="15" x="21.0" y="15.375" font-family="Arial" font-weight="bold" font-style="normal" text-decoration="none" family="Arial" text-anchor="middle" size="15">N</text></g></g><g id="ProcessOnG1224" transform="matrix(1.0,0.0,0.0,1.0,1065.5,879.0)" opacity="1.0"><path id="ProcessOnPath1225" d="M0.0 0.0L44.0 0.0L44.0 35.0L0.0 35.0Z" stroke="none" stroke-width="0.0" stroke-dasharray="none" fill="none"/><g id="ProcessOnG1226" transform="matrix(1.0,0.0,0.0,1.0,0.0,8.125)"><text id="ProcessOnText1227" fill="#323232" font-size="15" x="21.0" y="15.375" font-family="Arial" font-weight="bold" font-style="normal" text-decoration="none" family="Arial" text-anchor="middle" size="15">N</text></g></g><g id="ProcessOnG1228" transform="matrix(1.0,0.0,0.0,1.0,608.5,855.0)" opacity="1.0"><path id="ProcessOnPath1229" d="M0.0 0.0L44.0 0.0L44.0 35.0L0.0 35.0Z" stroke="none" stroke-width="0.0" stroke-dasharray="none" fill="none"/><g id="ProcessOnG1230" transform="matrix(1.0,0.0,0.0,1.0,0.0,8.125)"><text id="ProcessOnText1231" fill="#323232" font-size="15" x="21.0" y="15.375" font-family="Arial" font-weight="bold" font-style="normal" text-decoration="none" family="Arial" text-anchor="middle" size="15">Y</text></g></g><g id="ProcessOnG1232" transform="matrix(1.0,0.0,0.0,1.0,510.5,874.0)" opacity="1.0"><path id="ProcessOnPath1233" d="M0.0 0.0L240.0 0.0L240.0 40.0L0.0 40.0Z" stroke="none" stroke-width="0.0" stroke-dasharray="none" fill="none"/><g id="ProcessOnG1234" transform="matrix(1.0,0.0,0.0,1.0,0.0,10.625)"><text id="ProcessOnText1235" fill="#323232" font-size="15" x="119.0" y="15.375" font-family="Arial" font-weight="bold" font-style="normal" text-decoration="none" family="Arial" text-anchor="middle" size="15">进入下一级 module.path 进行查找</text></g></g><g id="ProcessOnG1236"><path id="ProcessOnPath1237" d="M835.5 910.0L442.5 910.0L442.5 379.2360679774998" stroke="#323232" stroke-width="2.0" stroke-dasharray="none" fill="none" marker-end="url(#ProcessOnMarker1238)"/></g><g id="ProcessOnG1240" transform="matrix(1.0,0.0,0.0,1.0,815.5,250.5)" opacity="1.0"><path id="ProcessOnPath1241" d="M0.0 0.0L325.0 0.0L325.0 40.0L0.0 40.0Z" stroke="none" stroke-width="0.0" stroke-dasharray="none" fill="none"/><g id="ProcessOnG1242" transform="matrix(1.0,0.0,0.0,1.0,0.0,8.125)"><text id="ProcessOnText1243" fill="#000000" font-size="19" x="161.5" y="19.475" font-family="Arial" font-weight="bold" font-style="normal" text-decoration="none" family="Arial" text-anchor="middle" size="19">文件模块和第三方模块共有的查找逻辑</text></g></g><g id="ProcessOnG1244" transform="matrix(1.0,0.0,0.0,1.0,37.0,610.0)" opacity="1.0"><path id="ProcessOnPath1245" d="M0.0 0.0L310.0 0.0L310.0 40.0L0.0 40.0Z" stroke="none" stroke-width="0.0" stroke-dasharray="none" fill="none"/><g id="ProcessOnG1246" transform="matrix(1.0,0.0,0.0,1.0,0.0,6.25)"><text id="ProcessOnText1247" fill="#323232" font-size="22" x="154.0" y="22.55" font-family="Arial" font-weight="bold" font-style="normal" text-decoration="none" family="Arial" text-anchor="middle" size="22">CommonJS 文件查找逻辑图</text></g></g></g></g></svg>